<?xml version="1.0" standalone="yes"?>
<svg xmlns="http://www.w3.org/2000/svg" width="8696" height="2234">
<path style="fill:none; stroke:none;" d="M0 0L0 2234L8696 2234L8696 0L0 0z"/>
<path style="fill:#01c3cb; stroke:none;" d="M2301 1105L1548 1105L1243 1105C1193.21 1105 1142.55 1102.37 1093 1107.17C1027.66 1113.5 963.407 1135.96 908 1171.05C824.742 1223.79 769.375 1307.28 708.8 1383C656.584 1448.27 604.563 1513.69 552.4 1579C545.817 1587.24 538.352 1595.25 534.039 1605C523.632 1628.52 529.67 1656.03 550 1671.99C567.988 1686.1 587.366 1685 609 1685L683 1685L1021 1685L2337 1685L2716 1685L2783 1685C2809.19 1685 2834.06 1685.67 2851.21 1662C2866.47 1640.95 2861.14 1615.96 2854.42 1593C2847.1 1567.97 2839.28 1543.08 2832.14 1518C2794.74 1386.63 2755.17 1255.56 2715.02 1125C2653.49 924.889 2595.88 723.527 2535.72 523C2521.63 476.028 2507.81 428.972 2493.72 382C2486.65 358.43 2480.67 334.005 2455 324.232C2441.69 319.165 2427.88 321 2414 321L2343 321L2095 321L1515 321L1329 321C1295.27 321 1259.25 317.416 1226 323.424C1109.63 344.451 1054.1 481.684 1115.43 580C1122.06 590.643 1130.15 600.156 1139 609C1184.63 654.612 1240.35 658 1301 658L1395 658L1958 658L2109 658L2149 658C2153.63 658 2161.66 656.48 2165.72 659.028C2172.15 663.056 2174.37 681.962 2176.42 689C2184.82 717.716 2193.86 746.248 2202.14 775C2233.86 885.197 2266.08 995.778 2301 1105z"/>
<path style="fill:#ffffff; stroke:none;" d="M704 1572L2730 1572C2694.53 1461.09 2663.74 1348.54 2630.28 1237C2580.02 1069.44 2529.54 901.9 2480.42 734C2458.66 659.581 2436.81 585.113 2414.02 511C2408.41 492.733 2402.99 474.368 2397.71 456C2396.19 450.718 2394.85 438.444 2390.3 435.028C2386.61 432.259 2377.42 434 2373 434L2326 434L2148 434L1461 434L1321 434C1297.89 434 1272.91 431.305 1250 434.289C1226.43 437.359 1204.15 458.572 1203.04 483C1202.7 490.447 1202.85 497.802 1204.91 505C1217.47 548.832 1262.87 545 1299 545L1631 545L2080 545L2186 545C2207.77 545 2228.56 543.605 2246 559.174C2270.64 581.169 2275.57 625.52 2284.72 656C2308.12 733.981 2331.32 812.019 2354.72 890C2376.22 961.643 2398.45 1033.12 2419.14 1105C2427.98 1135.7 2442.89 1168.37 2420.33 1197C2403.72 1218.08 2380.33 1218 2356 1218L2276 1218L1869 1218L1303 1218L1182 1218C1120.69 1218 1061.42 1219.96 1005 1247.26C972.228 1263.12 942.073 1283.5 916.015 1309.04C879.922 1344.42 850.345 1388.57 818.8 1428L743.6 1522C730.451 1538.44 715.608 1554.45 704 1572z"/>
<path style="fill:#01c3cb; stroke:none;" d="M5228 574L5228 619L5341 619L5341 745L5407 745L5407 619L5520 619L5520 574L5228 574M5559 574L5559 745L5625 745L5625 677L5805 677L5805 745L5872 745L5872 574L5805 574L5805 632L5625 632L5625 574L5559 574M5943 574L5943 745L6197 745L6197 700L6010 700L6010 679L6163 679L6163 640L6010 640L6010 619L6197 619L6197 574L5943 574z"/>
<path style="fill:#21bdc7; stroke:none;" d="M3230 627.529C3205.12 633.281 3207.59 671.392 3232 675.671C3243.71 677.725 3257.11 676 3269 676L3342 676L3568 676L4651 676L4998 676L5081 676C5093.39 676 5106.87 677.82 5115.61 666.985C5125.82 654.314 5120.62 633.515 5105 628.109C5097.22 625.417 5087.14 627 5079 627L5025 627L4670 627L3684 627L3374 627L3277 627C3262.28 627 3244.35 624.213 3230 627.529M6335 627.529C6309.96 633.308 6312.11 671.485 6337 675.674C6348.76 677.654 6362.07 676 6374 676L6447 676L6673 676L7756 676L8103 676L8186 676C8198.27 676 8211.85 677.718 8220.47 666.96C8230.37 654.601 8225.26 633.416 8210 628.109C8202.23 625.408 8192.13 627 8184 627L8130 627L7774 627L6790 627L6480 627L6382 627C6367.28 627 6349.35 624.218 6335 627.529z"/>
<path style="fill:#01c3cb; stroke:none;" d="M4407 854.424C4392.31 856.353 4376.81 854.929 4362 855.001C4309.56 855.254 4239.09 854.222 4197 890.3C4168.27 914.925 4161.65 954.355 4157.83 990C4153.71 1028.55 4154 1067.22 4154 1106C4154 1144.7 4153.73 1183.59 4158.72 1222C4163.16 1256.2 4170.48 1292.65 4199 1315.33C4240.65 1348.46 4299.75 1345.84 4350 1348.04C4423.1 1351.24 4496.83 1350.81 4570 1349.01C4612.75 1347.97 4655.57 1348.85 4698 1342.57C4728.72 1338.03 4759.8 1328.42 4780.7 1304C4800.09 1281.35 4805.72 1249.67 4809.16 1221C4816.2 1162.13 4815.63 1101.2 4813.04 1042C4811.04 996.324 4812.21 939.921 4782.33 902C4758.2 871.377 4719.36 864.18 4683 859.715C4624.77 852.563 4564.65 854 4506 854C4473.78 854 4438.93 850.232 4407 854.424M3223 861L3223 1343L3377 1343L3377 861L3223 861M3480 861L3480 1343L3627 1343L3627 1221L3836 1221C3861.43 1221 3897.58 1215.52 3915.79 1237C3924.83 1247.67 3926.43 1263.59 3927.04 1277C3928.04 1298.97 3928 1320.96 3928 1343L4073 1343L4073 1298C4073.01 1259.22 4082.24 1197.53 4045 1171.77C4037.33 1166.47 4028 1163.16 4019 1160.9C4010.91 1158.86 4002.35 1157.07 3994 1157C4019.44 1147.46 4042.59 1146.12 4060.24 1122C4077.64 1098.23 4078 1063.21 4078 1035C4078 973.531 4082.38 900.897 4016 871.439C3992.42 860.976 3964.26 862 3939 862C3907.68 862 3876.38 861 3845 861L3480 861M4907 861L4907 1343L5057 1343L5053 984C5057.25 984 5063.08 982.99 5066.96 985.028C5074.64 989.062 5080.47 1002.07 5085.42 1009C5100.34 1029.88 5115 1050.97 5129.72 1072C5171.36 1131.48 5213.64 1190.52 5255.28 1250C5269.55 1270.38 5284.01 1290.62 5298.28 1311C5304.89 1320.44 5311.13 1332.78 5319.51 1340.68C5323.8 1344.72 5332.56 1343 5338 1343L5385 1343L5576 1343L5576 861L5426 861L5430 1219C5426.05 1219 5420.81 1219.89 5417.09 1218.4C5409.71 1215.44 5403.38 1201.31 5398.86 1195C5383.71 1173.82 5368.8 1152.41 5353.98 1131C5311.54 1069.72 5268.47 1008.84 5225.42 948C5211.78 928.718 5198.42 909.236 5184.71 890C5178.7 881.565 5173.19 870.308 5165.54 863.318C5161.15 859.311 5152.51 861 5147 861L5099 861L4907 861M5894 861L5894 1343L6039 1343L6036 983C6042.15 983 6054.33 980.658 6059.61 984.028C6064.68 987.262 6067.63 997.757 6070.25 1003L6093.25 1049C6128.28 1119.07 6163.72 1188.92 6198.75 1259C6209.46 1280.41 6220.54 1301.59 6231.25 1323C6234.43 1329.37 6237.78 1342.61 6246.02 1342.98C6274.22 1344.24 6302.77 1343 6331 1343C6339.05 1343 6356.76 1346.34 6363.61 1341.97C6368.26 1339.01 6370.85 1329.79 6373.25 1325L6395.25 1281C6421.95 1227.59 6449.05 1174.41 6475.75 1121L6523.75 1025C6528.3 1015.94 6533.22 1007.07 6537.75 998C6539.82 993.862 6541.7 987.573 6545.39 984.603C6550.2 980.732 6562.09 983 6568 983L6565 1343L6710 1343L6710 861L6522 861L6469 861C6462.77 861 6452.07 858.931 6446.39 861.603C6441.15 864.071 6438.14 876.012 6435.78 881C6426.86 899.891 6418.39 919.007 6409.69 938C6385.41 991.025 6361.02 1044 6336.69 1097C6325.78 1120.77 6309.04 1146.56 6303 1172L6268.69 1098L6197.26 942L6170.78 884L6159.61 862.028L6139 861L6088 861L5894 861M6766 1343L6888 1343L6920 1343C6923.73 1343 6930.15 1344.22 6933.36 1341.97C6938.03 1338.71 6940.75 1328.99 6943.25 1324L6964.75 1281C6967.56 1275.38 6970.82 1264.12 6977.09 1261.6C6984.52 1258.62 6997.03 1261 7005 1261L7068 1261C7140.1 1261 7212.97 1257.89 7285 1261.02C7293.94 1261.41 7296.82 1273.14 7300.25 1280C7307.95 1295.41 7316.05 1310.6 7323.75 1326C7325.95 1330.4 7328.71 1340.2 7333.39 1342.4C7337.27 1344.22 7343.8 1343 7348 1343L7381 1343L7500 1343C7483.71 1303.87 7460.56 1266.48 7440.78 1229C7399 1149.83 7357.32 1070.55 7316.26 991C7300.4 960.272 7283.71 929.925 7268.25 899C7263.54 889.585 7256.62 867.652 7247.62 862.028C7243.95 859.731 7237.17 861 7233 861L7196 861L7068 861L7034 861C7030.06 861 7023.86 859.853 7020.38 862.028C7011.79 867.398 7005.89 887.149 7001.22 896L6955.22 983C6910.52 1067.72 6864.68 1151.88 6820.74 1237C6808.64 1260.44 6796.24 1283.8 6783.69 1307C6777.76 1317.97 6768.2 1330.64 6766 1343M7556 861L7556 1343L7706 1343L7703 984C7706.9 984 7712.17 983.092 7715.83 984.603C7723.45 987.754 7730.03 1002.43 7734.71 1009C7749.15 1029.26 7763.27 1049.74 7777.71 1070C7821.97 1132.11 7865.51 1194.75 7909.58 1257C7923.47 1276.64 7937.14 1296.43 7951.14 1316C7956.81 1323.92 7961.8 1333.84 7968.75 1340.68C7972.88 1344.74 7981.66 1343 7987 1343L8034 1343L8226 1343L8226 861L8075 861L8079 1219C8075.12 1219 8069.82 1219.92 8066.18 1218.4C8058.67 1215.25 8052.18 1200.5 8047.58 1194C8032.76 1173.06 8017.88 1152.14 8003.34 1131C7961.33 1069.92 7918.25 1009.51 7875.42 949C7861.78 929.724 7848.26 910.348 7834.72 891C7828.44 882.022 7822.69 871.137 7814.99 863.318C7810.97 859.244 7802.26 861 7797 861L7749 861L7556 861M1439 918.428C1382.53 926.518 1369.14 1005.41 1424 1027.55C1437.38 1032.95 1452.87 1031 1467 1031L1545 1031L1820 1031L1906 1031C1922.02 1031 1939.2 1033.12 1954 1025.73C2005.85 999.821 1987.67 924.824 1933 918.286C1904.16 914.836 1873.06 918 1844 918L1667 918L1515 918C1490.34 918 1463.4 914.932 1439 918.428z"/>
<path style="fill:#ffffff; stroke:none;" d="M7027 1155L7239 1155C7234.4 1139.05 7223.66 1123.83 7216.25 1109C7199.51 1075.53 7181.98 1042.47 7165.25 1009C7160.8 1000.11 7155.21 980.398 7146.62 975.028C7142.07 972.184 7126.32 972.807 7121.21 974.318C7117.15 975.52 7115.46 981.658 7113.58 985C7107.34 996.071 7101.93 1007.63 7096.25 1019C7073.67 1064.15 7046.4 1108.41 7027 1155M4399 980.424C4374.84 983.597 4341.33 977.35 4322.01 996.043C4307.53 1010.06 4304.32 1031.85 4302.91 1051C4300.32 1086.4 4299.65 1122.54 4302.09 1158C4303.32 1175.8 4307.29 1195.37 4322 1206.98C4343.76 1224.16 4374.08 1221.31 4400 1223.09C4434.45 1225.45 4469.43 1224 4504 1224C4538.14 1224 4573.16 1225.43 4607 1220.57C4623.49 1218.2 4640.37 1214.02 4651.81 1201C4661.43 1190.06 4663.67 1174.95 4665.17 1161C4668.28 1131.88 4667.32 1102.2 4666.04 1073C4664.93 1047.74 4665.49 1016.09 4645.99 997.04C4628.47 979.938 4597.7 981.541 4575 980.985C4536.39 980.04 4497.69 980 4459 980C4439.41 980 4418.42 977.874 4399 980.424M3627 983L3627 1100L3809 1100C3826.38 1100 3843.66 1099 3861 1099C3875.54 1099 3891.88 1100.01 3906 1096.07C3935.32 1087.89 3932.99 1044.71 3930.16 1021C3928.98 1011.21 3927.04 1001.38 3919.91 994.043C3902.43 976.086 3862.76 983 3840 983L3627 983z"/>
<path style="fill:#01c3cb; stroke:none;" d="M4043 1693L4061 1657C4055.41 1654.66 4043.08 1650.21 4040.04 1644.79C4036.68 1638.79 4041 1624.88 4041 1618C4041.01 1587.06 4047.19 1539.55 4012 1525.09C3998.01 1519.35 3982.78 1519.92 3968 1518.91C3938.69 1516.9 3908.31 1516.9 3879 1518.91C3861.8 1520.09 3843.25 1519.44 3828 1529.09C3820.21 1534.02 3812.26 1541.11 3809.1 1550C3805.22 1560.96 3805.46 1573.56 3804.96 1585C3803.72 1613.38 3797.85 1659.39 3821.04 1680.82C3838.22 1696.68 3866.41 1694 3888 1694C3919.48 1694 3951.67 1695.86 3983 1692.83C3991.37 1692.02 4000.21 1690.16 4008 1686.99C4012.06 1685.33 4017.53 1680.91 4022 1681.2C4029.22 1681.68 4035.92 1690.74 4043 1693M6558 1637L6505 1637C6505 1650.62 6503.68 1667.53 6512.53 1679C6522.45 1691.84 6541.17 1692.83 6556 1693C6583.66 1693.33 6611.34 1693 6639 1693C6663 1693 6703.77 1696.66 6715.56 1670C6719.15 1661.89 6720.31 1652.78 6720.91 1644C6721.39 1636.97 6720.7 1629.95 6719.71 1623C6713.75 1580.92 6666.03 1586 6634 1586C6625.95 1586 6618 1585.04 6610 1585C6597 1584.94 6563.33 1590.87 6558.57 1574C6556.11 1565.27 6564.14 1559.17 6572 1558.19C6595.6 1555.23 6621.33 1555.34 6645 1557.09C6654.28 1557.77 6660.57 1563.68 6661 1573L6714 1573C6713.34 1557.71 6712.49 1539.23 6699.96 1528.33C6690.54 1520.14 6676.71 1519.95 6665 1518.83C6635.41 1516 6602.59 1516.01 6573 1518.83C6551.21 1520.9 6518.58 1518.25 6508.45 1543C6504.95 1551.56 6504 1560.84 6504 1570C6504 1583.05 6503.84 1597.86 6511.79 1609C6521.64 1622.8 6538.44 1624 6554 1624C6574.05 1624 6593.95 1625 6614 1625C6627.62 1625 6662.27 1620.42 6666.43 1638C6669.31 1650.22 6656.15 1653.96 6647 1654.83C6625.72 1656.86 6602.26 1657.2 6581 1655.17C6568.16 1653.94 6558.13 1652.23 6558 1637M4479 1520L4479 1693L4524 1693L4524 1520L4479 1520M4561 1520L4561 1553L4607 1553L4607 1520L4561 1520M5072 1520L5072 1693L5244 1693L5244 1649L5125 1649L5125 1520L5072 1520M5998 1520L5998 1589L5997 1589C5992.06 1578.41 5980 1572.65 5969 1570.61C5943.46 1565.9 5900.89 1564.41 5880.17 1582.67C5871.14 1590.63 5869.51 1602.63 5868.96 1614C5868.11 1631.42 5865.75 1651.15 5871.7 1668C5883.16 1700.45 5937.25 1698.36 5965 1693.71C5978.8 1691.4 5992.79 1685.56 5997 1671L5998 1671L5998 1693L6042 1693L6042 1520L5998 1520M7315 1520L7315 1553L7360 1553L7360 1520L7315 1520M4658 1542L4658 1571L4635 1571L4635 1602L4658 1602C4658 1625.3 4650.4 1666.02 4669.09 1683.81C4674.83 1689.28 4683.37 1691.57 4691 1692.92C4711.79 1696.57 4751.81 1701.21 4767.79 1683.91C4778.21 1672.62 4778 1653.34 4778 1639L4742 1639C4742 1644.31 4742.63 1650.36 4739.3 1654.9C4733.22 1663.17 4714.92 1663.51 4708.99 1654.9C4700.25 1642.19 4705 1616.7 4705 1602L4778 1602L4778 1571L4705 1571L4705 1542L4658 1542z"/>
<path style="fill:#ffffff; stroke:none;" d="M3970 1649L3970 1648L3929 1626.14L3916.45 1616.9L3936 1583L3987 1615C3987 1602.24 3990.73 1579.66 3981.44 1569.33C3974.96 1562.12 3962.88 1562 3954 1562C3934.66 1562 3915.32 1561.9 3896 1562C3886.8 1562.04 3873.32 1561.57 3866.1 1568.22C3852.94 1580.36 3857.58 1610.17 3859.07 1626C3859.72 1632.79 3861.25 1641.04 3867.04 1645.35C3878.61 1653.96 3898.51 1651 3912 1651C3931.38 1651 3950.67 1649.83 3970 1649z"/>
<path style="fill:#01c3cb; stroke:none;" d="M4283 1606L4329 1606C4333.06 1590.49 4361.79 1596.43 4374 1596.96C4379.37 1597.2 4385.25 1596.52 4389.96 1599.73C4397.79 1605.07 4397 1617.57 4397 1626C4383.79 1612.91 4366.5 1614 4349 1614C4336.22 1614 4322.64 1613.47 4310 1615.44C4281.03 1619.96 4265.93 1659.29 4285.53 1682.91C4291.3 1689.86 4301.48 1692.19 4310 1693.56C4329.41 1696.69 4352.7 1696.91 4372 1693C4382.53 1690.86 4391.91 1686.63 4396 1676L4397 1676L4397 1693L4442 1693L4442 1618C4442 1605.37 4442.6 1590.81 4432.9 1581.1C4424.87 1573.08 4412.71 1571.11 4402 1569.58C4380.38 1566.48 4356.7 1569.01 4335 1569.96C4321.58 1570.55 4306.52 1570.64 4295 1578.8C4285.3 1585.68 4284.96 1595.42 4283 1606M5270 1606L5316 1606C5318.47 1593.78 5336.19 1596 5346 1596C5355.88 1596 5375.12 1594.22 5380.91 1604.02C5384.4 1609.92 5383 1618.42 5383 1625C5370.16 1612.75 5352.67 1614 5336 1614C5322.91 1614 5308.91 1613.33 5296 1615.61C5267.26 1620.69 5253.48 1659.62 5272.53 1682.96C5278.21 1689.92 5288.52 1692.2 5297 1693.56C5316.12 1696.64 5338.96 1696.85 5358 1693.2C5368.15 1691.25 5377.13 1687.7 5382 1678L5383 1678L5383 1693L5429 1693L5429 1616C5429 1603.57 5429.03 1589.27 5418.96 1580.21C5405.72 1568.31 5384.54 1569 5368 1569C5346.42 1569 5323.22 1567.18 5302 1571.45C5292.73 1573.31 5282.6 1576.26 5276.53 1584.01C5271.55 1590.39 5270.98 1598.28 5270 1606M5715 1593L5714 1593L5714 1571L5669 1571L5669 1693L5714 1693L5714 1645C5714 1636.31 5713.62 1624.77 5718.09 1617C5726.73 1601.96 5752.12 1602.6 5767 1604.73C5774.12 1605.75 5780.99 1607.26 5784.91 1614C5789.32 1621.59 5788 1631.61 5788 1640L5788 1693L5834 1693C5834 1668.16 5835.56 1642.71 5833.17 1618C5832.03 1606.24 5830.4 1593.53 5822.32 1584.17C5816.65 1577.6 5808.23 1574.17 5800 1572.13C5775.53 1566.08 5724.04 1561.69 5715 1593M6124 1592L6123 1592L6123 1571L6078 1571L6078 1693L6123 1693L6123 1644C6123 1634.02 6123.35 1621.55 6129.11 1613.01C6141.81 1594.19 6175.98 1600.54 6177 1624L6220 1624C6220 1608.79 6220.74 1588.13 6207.98 1577.33C6199.76 1570.37 6187.37 1569 6177 1569C6157.37 1568.99 6130.72 1568.72 6124 1592M6919 1652C6905.59 1652 6890.26 1649.9 6877.06 1652.15C6871.32 1653.12 6871.47 1662.16 6865 1664.36C6857.48 1666.92 6848.8 1666 6841 1666C6820.96 1666 6801.02 1666.14 6801 1641L6919 1641C6919 1621.05 6921.67 1595.28 6904.91 1580.81C6888.77 1566.87 6865.89 1569 6846 1569C6814.38 1569 6767.66 1561.65 6757.16 1601C6755.36 1607.72 6754.19 1615.04 6754.01 1622C6753.52 1642.07 6753.87 1671.88 6772.01 1684.96C6787.11 1695.84 6807.48 1693.59 6825 1694.01C6845.81 1694.52 6866.34 1696.39 6887 1692.19C6897.81 1690 6908.47 1686.19 6914.09 1676C6917.98 1668.97 6918.84 1659.91 6919 1652M6998 1592L6997 1592L6997 1571L6952 1571L6952 1693L6997 1693L6997 1645C6997 1634.89 6997.05 1622.9 7002.48 1614C7009.75 1602.1 7033.98 1597.98 7044.89 1607.39C7049.61 1611.47 7050.53 1618.12 7051 1624L7094 1624C7094 1609.04 7094.6 1587.86 7081.98 1577.34C7073.39 1570.18 7060.72 1569 7050 1569C7030.5 1569 7004.63 1569.04 6998 1592M7563 1642L7516 1642C7515.79 1665.74 7482.39 1661.6 7466 1660.07C7459.48 1659.47 7452.09 1658.45 7447.1 1653.79C7432.72 1640.32 7438.66 1607.58 7459 1604.15C7472.49 1601.87 7494.32 1599.83 7507 1605.92C7512.48 1608.55 7513.35 1617.2 7518.23 1618.68C7530.57 1622.44 7549.06 1619 7562 1619C7561.9 1606.35 7560.22 1589.19 7549.91 1580.39C7541.19 1572.95 7527.01 1570.95 7516 1569.93C7497.34 1568.19 7478.66 1569.14 7460 1569.96C7442.53 1570.73 7423.25 1570.39 7409.04 1582.47C7393.81 1595.41 7393.79 1618.74 7394 1637C7394.09 1643.96 7395.2 1651.25 7396.9 1658C7407.33 1699.55 7455.37 1695 7489 1695C7508.72 1695 7535.49 1695.05 7550.96 1680.81C7561.6 1671.02 7562.99 1655.63 7563 1642M7757 1652L7712 1652C7710.68 1667.07 7695.81 1666 7684 1666C7663.14 1666 7640.16 1667.93 7639 1641L7757 1641C7757 1620.06 7760.67 1594.27 7742 1579.52C7726.14 1566.98 7703.99 1569 7685 1569C7652.98 1569 7606.67 1561.59 7595.75 1601C7594.15 1606.77 7593.08 1613.01 7593 1619C7592.74 1640.87 7591.18 1672.04 7612 1685.9C7626.69 1695.68 7646.26 1693.6 7663 1694.01C7684.33 1694.54 7705.94 1696.94 7727 1691.87C7735.37 1689.85 7744.79 1687.16 7750.21 1679.96C7756.37 1671.78 7757 1661.81 7757 1652M4079 1571L4079 1636C4079 1650.98 4079.76 1668.06 4090.47 1679.83C4107.92 1699 4148.93 1698.26 4172 1692.52C4182.81 1689.84 4195.14 1685.04 4198 1673L4199 1673L4199 1693L4245 1693L4245 1571L4199 1571L4199 1620C4199 1629.41 4199.94 1639.6 4194.79 1648C4184.41 1664.89 4138.87 1667.65 4128.01 1650C4123.58 1642.8 4125 1633.05 4125 1625L4125 1571L4079 1571M4561 1571L4561 1693L4607 1693L4607 1571L4561 1571M4803 1571C4805.16 1580.1 4810.35 1588.5 4814.14 1597C4822.79 1616.42 4831.84 1635.67 4840.69 1655C4845.43 1665.34 4849.78 1683.48 4857.97 1691.4C4861.56 1694.87 4871.32 1693 4876 1693C4865.54 1710.92 4859.92 1715 4839 1715L4839 1746C4854.5 1748.88 4880.69 1749.95 4893.96 1740.06C4907.15 1730.24 4912.21 1710.18 4919.25 1696C4932.51 1669.29 4944.27 1641.84 4957.26 1615C4963.78 1601.52 4974.37 1585.75 4977 1571L4942 1571L4927.39 1572.03L4916 1594L4890 1651L4863.23 1592L4852.61 1571.6L4838 1571L4803 1571M5466 1571L5466 1637C5466 1651.81 5467.12 1668.75 5478.04 1679.98C5496.34 1698.81 5534.24 1697.84 5558 1692.79C5569.97 1690.24 5583.58 1684.4 5586 1671L5587 1671L5587 1693L5632 1693L5632 1571L5587 1571L5587 1619C5587 1628.21 5586.96 1639.99 5581.87 1648C5571.38 1664.48 5525.79 1668.19 5515.09 1650C5510.6 1642.36 5512 1632.47 5512 1624L5512 1571L5466 1571M6239 1571C6240.74 1581.09 6247 1590.7 6251.14 1600C6259.79 1619.42 6268.84 1638.67 6277.69 1658C6281.9 1667.18 6286.08 1684.7 6293.64 1691.4C6297.39 1694.72 6306.3 1693 6311 1693C6304.49 1712.13 6293.55 1715 6275 1715L6275 1746C6290.37 1748.85 6315.7 1749.88 6329 1740.36C6343.29 1730.13 6348.91 1708.18 6356.26 1693C6369.57 1665.49 6382.55 1637.78 6395.31 1610C6401.16 1597.26 6409.11 1584.49 6413 1571L6362 1571L6347.31 1603L6325 1650L6299.31 1593L6288.61 1572.03L6274 1571L6239 1571M7111 1571C7112.96 1581.97 7120.79 1593.07 7125.75 1603C7135.56 1622.61 7144.95 1642.4 7154.75 1662C7158.66 1669.81 7163.44 1686.95 7170.64 1691.97C7174.03 1694.34 7181.06 1693 7185 1693L7215 1693C7218.95 1693 7224.96 1694.11 7228.61 1692.4C7235.68 1689.07 7241.31 1669.88 7244.75 1663C7254.72 1643.06 7264.28 1622.94 7274.25 1603C7279.21 1593.07 7287.04 1581.97 7289 1571L7254 1571L7239.39 1571.6L7227.86 1594L7200 1656L7172.86 1595L7161.58 1572.03L7147 1571L7111 1571M7315 1571L7315 1693L7360 1693L7360 1571L7315 1571z"/>
<path style="fill:#ffffff; stroke:none;" d="M6800 1617L6874 1617C6873.01 1611.7 6872.89 1605.53 6868.61 1601.64C6862.47 1596.06 6850.81 1596.01 6843 1596C6825.33 1595.97 6800.2 1593.36 6800 1617M7639 1617L7712 1617C7711.79 1591.76 7680.42 1594.51 7662 1596.71C7655.71 1597.47 7648.3 1597.05 7643.22 1601.56C7638.76 1605.53 7639 1611.54 7639 1617M5939 1603.43C5932.51 1604.31 5925.1 1605.07 5920.39 1610.21C5912.21 1619.15 5912.84 1647.57 5922.11 1655.61C5934.29 1666.18 5965.27 1662 5980 1659.56C5999.3 1656.37 6005.97 1621.69 5991.61 1608.64C5980.98 1598.97 5952.23 1601.62 5939 1603.43M4339 1640.43C4327.41 1642.09 4314.87 1656.8 4331 1663.52C4345.74 1669.65 4370.82 1667.18 4386 1663.57C4396.55 1661.06 4400.74 1646.45 4388.99 1642.1C4375.53 1637.14 4353.09 1638.41 4339 1640.43M5326 1640.43C5314.28 1642.11 5301.68 1656.73 5318 1663.52C5332.24 1669.44 5356.25 1667.18 5371 1663.99C5381.74 1661.66 5389.5 1647.63 5376 1642.14C5363 1636.86 5339.74 1638.46 5326 1640.43z"/>
<path style="fill:#01c3cb; stroke:none;" d="M563 1796.43C548.373 1798.42 534.972 1804.44 525.326 1816C499.843 1846.54 513.791 1895.3 552 1906.96C569.068 1912.17 590.291 1909 608 1909L719 1909L1085 1909L2289 1909L2705 1909L2785 1909C2810.36 1909 2834.64 1909.09 2850.96 1886C2876.57 1849.75 2851.33 1797.98 2807 1796.04C2754.23 1793.72 2700.83 1796 2648 1796L2331 1796L1142 1796L754 1796L628 1796C606.827 1796 583.976 1793.57 563 1796.43z"/>
</svg>
